<?xml version="1.0" encoding="utf-8"?>
<!-- Generator: Adobe Illustrator 24.0.0, SVG Export Plug-In . SVG Version: 6.00 Build 0)  -->
<svg version="1.1" xmlns="http://www.w3.org/2000/svg" xmlns:xlink="http://www.w3.org/1999/xlink" x="0px" y="0px"
	 viewBox="0 0 1009 350" style="enable-background:new 0 0 1009 350;" xml:space="preserve">
<style type="text/css">
	.st0{fill:#333333;}
	.st1{fill:#3C3C3C;}
	.st2{fill:#707070;}
	.st3{fill:#B2B2B2;}
	.st4{fill:#E42613;}
	.st5{fill:#AC1C17;}
	.st6{fill:#861814;}
	.st7{fill:#601311;}
	.st8{fill:#E24A3F;}
	.st9{fill:#EE7E7C;}
	.st10{fill:#F2BDBD;}
	.st11{fill:#80BA27;}
	.st12{fill:#72952C;}
	.st13{fill:#486126;}
	.st14{fill:#2D391C;}
	.st15{fill:#A8C36F;}
	.st16{fill:#CCDC88;}
	.st17{fill:#E7ECBA;}
	.st18{fill:none;stroke:#1D1D1B;stroke-miterlimit:10;}
	.st19{fill:#F2F2F2;}
	.st20{fill:none;stroke:#E42613;stroke-width:14;stroke-linecap:round;stroke-linejoin:round;stroke-miterlimit:10;}
	.st21{fill:#1D1D1B;}
	.st22{fill:#76BC21;}
	.st23{fill:#FFFFFF;}
	.st24{fill:#E43D30;}
	.st25{opacity:0.26;clip-path:url(#SVGID_2_);fill:#E43D30;}
	.st26{opacity:0.11;clip-path:url(#SVGID_2_);fill:#E43D30;}
	.st27{opacity:8.000000e-02;clip-path:url(#SVGID_2_);fill:#76BC21;}
	.st28{fill:#F7A90D;}
	.st29{fill:#7CB4AB;}
	.st30{fill:#DDF1F0;}
	.st31{fill:#CCE5E3;}
	.st32{fill:#FFD22D;}
	.st33{fill:#CCCD48;}
	.st34{fill:#EEF9AF;}
	.st35{fill:#012F4F;}
	.st36{fill:#006AA5;}
	.st37{fill:#005EA5;}
	.st38{fill:#FDAB82;}
	.st39{fill:#004C83;}
	.st40{fill:#DD6B6B;}
	.st41{fill:#F4A4A4;}
	.st42{fill:#D7DDDC;}
	.st43{fill:#E1E5E5;}
	.st44{fill:#EC936B;}
	.st45{fill:#043554;}
	.st46{fill:#04568D;}
	.st47{fill:none;stroke:#04568D;stroke-width:4;stroke-miterlimit:10;}
	.st48{opacity:0.27;fill:#76BC21;}
</style>
<g id="Layer_1">
</g>
<g id="work">
	<g>
		<defs>
			<path id="SVGID_1_" d="M551.3-26.9c-42.8,19-89.4,23.3-134.2,12c-38-9.5-82.3-10.5-113.2,20.2C238.7,70.1,153.8,40.2,175.4,130
				S253.1,301.9,287,326c33.9,24.1,97.1,36.9,125.1,37.6s76.5-30.1,138.4-22.6s140.1,27.1,193.6,9.8c53.5-17.3,86.7-46.6,93.9-81.6
				c7.2-35,20.9-59.8,2-99s-18.9-73-76.3-113.7S677.2-5.6,615.4-30.2C592.9-39.2,570.6-35.4,551.3-26.9z"/>
		</defs>
		<clipPath id="SVGID_2_">
			<use xlink:href="#SVGID_1_"  style="overflow:visible;"/>
		</clipPath>
		<path class="st25" d="M320.9,21.8c1.9-27.6,15.2-54,43.9-61.5c20.5-5.3,48,4.2,60.8,22.8c4.6,6.7,7,18.5,7.4,26.5
			c0.7,11.9,0.5,12.4,0.2,21.2c-0.7,17.8-0.8,35.2,0.7,53c4,44.8,12.7,89.5,29.7,131.3c5.3,12.8,11.1,25.2,16.9,37.8
			c1.2,2.8,8.1,15.5,10.8,16.7C420.7,235.6,316.6,88.8,320.9,21.8"/>
		<path class="st26" d="M702.8,108c2.3-11.4-0.2-23.6-11-29.8c-7.7-4.4-20-3.6-27.2,2.5c-2.6,2.2-4.9,6.7-6,9.9
			c-1.6,4.8-1.6,5-2.4,8.6c-1.7,7.3-3.6,14.4-6.2,21.4c-6.6,17.8-15.1,34.9-26.7,50c-3.6,4.6-7.3,9-11.1,13.5c-0.8,1-5,5.4-6.2,5.6
			C638.5,183.7,697.1,135.7,702.8,108"/>
		<path class="st27" d="M738,93.6c24.2-15.4,54.6-20.3,78.4-0.8c16.9,13.8,25.8,42.9,18.2,64.8c-2.9,8-11.3,17.2-17.7,22.5
			c-9.5,7.8-10,7.9-17.6,13c-15.4,10.3-30,21-44,33.2c-35.2,30.8-67.3,65.5-91.8,105.4c-7.5,12.2-14.4,24.7-21.3,37.2
			c-1.6,2.7-8,16.4-7.4,19.4C619.9,308.2,679.2,131.1,738,93.6"/>
	</g>
	<path class="st28" d="M283.1,229.4c32.8-10.5,68.3-15.4,104.4-14.4c81.8,2.4,213.4,10.4,261.4,26.3c67.6,22.3,135.4,17.2,147,48.1
		c6.7,17.8-52.4,54.8-215.3,56s-293.4,6.1-313.3-44.1s-27.1-58.2,11.1-70.2C280,230.3,281.6,229.8,283.1,229.4z"/>
	<path class="st22" d="M354.5,162c-5.1-1.4-10.6-0.7-13.8,3.9c-2.2,3.3-2.3,8.9,0.2,12.3c0.9,1.3,2.9,2.4,4.3,3
		c2.1,0.9,2.2,0.9,3.8,1.4c3.2,1,6.4,2.1,9.4,3.5c7.8,3.6,15.2,8,21.6,13.7c2,1.7,3.8,3.6,5.7,5.4c0.4,0.4,2.3,2.5,2.3,3
		C386.4,193.5,366.8,165.5,354.5,162"/>
	<g>
		<polygon class="st29" points="752.2,276.8 693.6,261.3 636.4,274.3 636.4,280.2 694.8,292.9 752.2,282.7 		"/>
		<polygon class="st30" points="694.8,287 636.4,274.3 693.6,261.3 752.2,276.8 		"/>
		<polygon class="st31" points="642.2,274.2 693.6,262.6 746.3,276.5 694.8,285.7 		"/>
		<polygon class="st30" points="652.7,276.1 694.8,285.3 735.7,278 693.6,266.9 		"/>
	</g>
	<g>
		<g>
			<path class="st31" d="M347.7,258.6c0-1.3-5.6-2.4-12.4-2.4s-12.4,1.1-12.4,2.4l1.6,21c0,1.3,4.9,2.9,10.8,2.9s10.8-1.9,10.8-3.3
				L347.7,258.6z"/>
		</g>
		<path class="st30" d="M335.3,256.1c-6.9,0-12.4,1.1-12.4,2.4s5.6,2.4,12.4,2.4s12.4-1.1,12.4-2.4S342.1,256.1,335.3,256.1z
			 M335.3,260.6c-7.8,0-12-1.3-12-2c0-0.7,4.2-2,12-2s12,1.3,12,2C347.3,259.2,343,260.6,335.3,260.6z"/>
		<g>
			<g>
				<path class="st11" d="M334.3,201.8c-0.1,2.5,0.1,4.9,0.3,7.4c0.2,2.4,0.4,4.9,0.6,7.3c0.4,4.9,0.8,9.8,1,14.6
					c0.3,4.9,0.5,9.8,0.5,14.7c0,1.2,0,2.4,0,3.7c0,1.2,0,2.4-0.1,3.7c-0.1,1.2-0.1,2.4-0.2,3.7c-0.1,1.2-0.2,2.4-0.7,3.6
					c-0.3-1.3-0.3-2.5-0.2-3.7c0-1.2,0-2.4,0.1-3.6c0-1.2,0-2.4,0-3.7c0-1.2,0-2.4-0.1-3.7c-0.1-4.9-0.4-9.7-0.8-14.6
					c-0.3-4.9-0.8-9.7-1.3-14.6c-0.3-2.4-0.5-4.8-0.8-7.3c-0.3-2.4-0.7-4.8-1.3-7.2L334.3,201.8z"/>
				<path class="st11" d="M344.9,234.2c-1,2.2-1.6,4.3-2.1,6.6c-0.5,2.2-1,4.4-1.5,6.6c-0.5,2.2-0.9,4.4-1.5,6.6
					c-0.3,1.1-0.6,2.2-0.9,3.3c-0.3,1.1-0.8,2.2-1.4,3.1c0.4-2.3,1.1-4.4,1.6-6.6c0.5-2.2,1-4.4,1.5-6.6c0.5-2.2,0.8-4.4,1.2-6.7
					c0.3-2.2,0.5-4.5,0.3-6.8L344.9,234.2z"/>
				<path class="st11" d="M325.5,216.1c0,0.8,0.3,1.8,0.5,2.7c0.2,0.9,0.5,1.8,0.7,2.8c0.5,1.8,1.1,3.6,1.5,5.5
					c1,3.7,1.8,7.3,2.5,11c0.7,3.7,1.4,7.4,1.8,11.2c0.3,1.9,0.4,3.7,0.6,5.6c0.1,0.9,0.2,1.9,0.2,2.8c0.1,0.9,0.1,1.9,0,2.8
					c-0.6-1.8-0.6-3.7-0.8-5.6c-0.2-1.9-0.5-3.7-0.8-5.6c-0.5-3.7-1.2-7.4-2-11.1c-0.4-1.8-0.8-3.7-1.3-5.5c-0.5-1.8-1-3.6-1.6-5.4
					c-0.6-1.8-1.1-3.6-1.8-5.3c-0.3-0.9-0.7-1.7-1.1-2.6c-0.4-0.9-0.9-1.6-1.4-2.6L325.5,216.1z"/>
				<path class="st11" d="M320.7,227.2c0.3,0,0.6,0.1,0.8,0.2c0.1,0,0.1,0.1,0.2,0.1l0,0l0.1,0.1c0.1,0.1,0.3,0.2,0.4,0.3l0.5,0.5
					c0.3,0.3,0.5,0.6,0.7,1c0.5,0.6,0.8,1.3,1.2,2c0.7,1.3,1.3,2.7,1.8,4c1,2.7,1.7,5.5,2.4,8.3c0.3,1.4,0.6,2.8,0.9,4.2
					c0.2,1.4,0.5,2.8,0.7,4.2c0.2,1.4,0.4,2.8,0.6,4.2c0.1,1.4,0.4,2.8,0.3,4.3c-0.5-1.4-0.7-2.7-1-4.1c-0.3-1.4-0.6-2.8-0.9-4.1
					c-0.3-1.4-0.7-2.7-1-4.1c-0.4-1.4-0.8-2.7-1.2-4c-0.8-2.7-1.8-5.3-2.9-7.8c-0.6-1.3-1.2-2.5-1.9-3.6c-0.4-0.6-0.7-1.1-1.1-1.6
					c-0.2-0.3-0.4-0.5-0.6-0.7l-0.3-0.2c0,0,0,0-0.1,0l0,0l0,0c0,0,0.1,0,0.1,0.1c0.2,0.1,0.4,0.1,0.6,0.1L320.7,227.2z"/>
			</g>
			<g>
				<path class="st32" d="M302,232.2c-11.7,10.7-7.4,11.1-0.4,8.4c7-2.7,5-0.1,10.3-2s14.2-7.5,10.9-11
					C322.9,227.6,313.7,221.5,302,232.2z"/>
				<path class="st32" d="M324.8,211c-3.3,0.2-8.7,2.8-11.6,5.4c-2.6,2.4-4.8,6.6-1.6,7.4c1.1,0.3,1.9,0.3,2.6,0.2
					c-2.1-1.1-1.9-4.6,6-8.8c6.7-3.6,9.7-2.1,11.1,0C331.4,213.3,330.1,210.7,324.8,211z"/>
				<path class="st11" d="M320.3,215.2c-7.9,4.2-8.1,7.7-6,8.8c3.3-0.5,3.7-4.2,8.9-4.2c6.2,0,7.8-1.6,8.2-3.7
					c0.1-0.3,0.1-0.6,0.1-0.9C330.1,213.1,327,211.6,320.3,215.2z"/>
				<path class="st11" d="M336.6,200.6c-0.5-2.1-1.6-3.7-2.8-4.8c-0.6-0.5-1.1-1-1.5-1.6c-1.7-0.2-3.9,1-6.2,5.2
					c0.3,0,0.6-0.1,0.8-0.1c0.8,0,1,0.7,1.5,1.4c2.1,3.1,2.4,5,4.9,5S337.4,204.2,336.6,200.6z"/>
				<path class="st32" d="M332.2,194.2c-0.4-0.5-0.8-1.1-1.2-1.7c-0.1-0.2-0.3-0.4-0.4-0.6c-2.2-3.3-5.3-2.1-5.9-1.7
					c-3.9,2.5-11.9,11.5-7.6,13.9c1.9,1.1,4.8-3.9,8.9-4.7C328.3,195.1,330.5,194,332.2,194.2z"/>
				<path class="st32" d="M357.6,212.5c-1.3-2.9-4.7-2.3-4.7-2.3c-4.8,1.5-7.8,6.9-13.1,15.7c-1.6,2.7-2.3,5.1-2.2,7.1
					c2.1-5.5,6.1-12.7,13.1-15.9c0.1-0.3,0.2-0.5,0.3-0.7C352.5,213.2,359.2,216.2,357.6,212.5z"/>
				<path class="st11" d="M337.5,233c0,4.6,3.4,7.3,5.5,7.3c1.1,0,2.3-1,3.4-2.3c2.2-2.6,3.3-6,3.3-9.4c0-3.7,0.1-9,0.9-11.5
					C343.6,220.3,339.6,227.5,337.5,233z"/>
			</g>
		</g>
	</g>
	<g>
		<g>
			<polygon class="st16" points="450,303.5 352.3,277.7 352.3,265.1 450,288.5 			"/>
			<polygon class="st33" points="587.7,275 450,303.5 450,288.5 587.7,262.4 			"/>
			<polygon class="st34" points="458.4,277.9 352.3,265.1 450,289.9 587.7,262.4 			"/>
		</g>
		<g>
			<polygon class="st16" points="450,289.4 352.3,263.5 352.3,251 450,274.4 			"/>
			<polygon class="st33" points="587.7,260.8 450,289.4 450,274.4 587.7,248.3 			"/>
			<polygon class="st34" points="458.4,263.7 352.3,251 450,275.8 587.7,248.3 			"/>
		</g>
		<g>
			<polygon class="st16" points="450,275.2 352.3,249.4 352.3,236.8 450,260.2 			"/>
			<polygon class="st33" points="587.7,246.7 450,275.2 450,260.2 587.7,234.1 			"/>
			<polygon class="st34" points="458.4,249.6 352.3,236.8 450,261.6 587.7,234.1 			"/>
		</g>
		<g>
			<polygon class="st16" points="450,261.1 352.3,235.2 352.3,222.7 450,246.1 			"/>
			<polygon class="st33" points="587.7,232.5 450,261.1 450,246.1 587.7,220 			"/>
			<polygon class="st34" points="467.6,193.3 352.3,222.7 450,247.5 587.7,220 			"/>
		</g>
	</g>
	<g>
		<g>
			<polygon class="st31" points="476.9,312.5 453.4,306.3 453.4,303.3 476.9,308.9 			"/>
			<polygon class="st29" points="510,305.7 476.9,312.5 476.9,308.9 510,302.6 			"/>
			<polygon class="st30" points="479,306.4 453.4,303.3 476.9,309.2 510,302.6 			"/>
		</g>
		<g>
			<polygon class="st31" points="476.9,309.1 453.4,302.9 453.4,299.9 476.9,305.5 			"/>
			<polygon class="st29" points="510,302.3 476.9,309.1 476.9,305.5 510,299.2 			"/>
			<polygon class="st30" points="479,303 453.4,299.9 476.9,305.8 510,299.2 			"/>
		</g>
		<g>
			<polygon class="st31" points="476.9,305.7 453.4,299.5 453.4,296.5 476.9,302.1 			"/>
			<polygon class="st29" points="510,298.8 476.9,305.7 476.9,302.1 510,295.8 			"/>
			<polygon class="st30" points="479,299.6 453.4,296.5 476.9,302.4 510,295.8 			"/>
		</g>
		<g>
			<polygon class="st31" points="476.9,302.3 453.4,296.1 453.4,293.1 476.9,298.7 			"/>
			<polygon class="st29" points="510,295.4 476.9,302.3 476.9,298.7 510,292.4 			"/>
			<polygon class="st30" points="481.2,286 453.4,293.1 476.9,299 510,292.4 			"/>
		</g>
	</g>
	<g>
		<polygon class="st16" points="554.5,321.9 528.4,315.2 528.4,280.5 554.5,280.5 		"/>
		<polygon class="st33" points="580.6,315.2 554.5,321.9 554.5,280.5 580.6,280.5 		"/>
		<polygon class="st34" points="555.6,273.9 528.4,280.5 554.5,284.4 580.6,280.5 		"/>
	</g>
	<g>
		<path class="st35" d="M626,303.7c0,0-3.4,5.5-11,6.8c-7.6,1.3-5.5,5.5-0.4,5.5c5.1,0,10.2,0.4,13.1-1.7l0.8,1.3
			c0,0,6.4,0.8,7.2-0.4c0.8-1.3,1.3-10.2-1.7-14L626,303.7z"/>
		<path class="st35" d="M641.7,304.6c0,0-2.5,7.6-6.8,10.6c-4.2,3,3.4,5.1,9.3,3.4c5.9-1.7,5.9-9.3,4.2-15.3L641.7,304.6z"/>
		<path class="st36" d="M622.4,227.6c-0.1-0.4-3.2,15.5,0.6,47.3c3.8,31.8,1.7,29.7,1.7,29.7s5.5,5.5,9.8-1.7c4.2-7.2,0.8-25,0.8-25
			s-3.4-10.6-0.4-14s1.5-29.5,1.5-29.5S622.8,230.2,622.4,227.6z"/>
		<path class="st37" d="M633,242.5c3.5,5.2-2.5,23.7,7.6,36.5c0,0,7.5-0.8,6.8-8.9c-0.7-8,5.7-29.1,0.1-39.9
			C647.5,230.2,629.5,237.3,633,242.5z"/>
		<path class="st36" d="M623.9,227.4c0,0,7.8,7.6,11.1,12.9c3.3,5.3-4.3,21.8,4.2,37.1c0,0,1.7,4.7,1.3,9.3s0,18.7,0,18.7
			s5.1,4.2,9.3-1.7c4.2-5.9-1.7-27.6-2.1-35.6c-0.4-8.1,6.8-28.8,1.7-39.9L623.9,227.4z"/>
		<path class="st38" d="M638.7,175.7c0,0,0,2.5-0.8,4.2c-0.8,1.7-2.1,2.5-2.1,2.5v4.2l14-9.8c0,0-1.3-1.7,0.8-5.1l-2.1-4.2
			L638.7,175.7z"/>
		<path class="st38" d="M636.2,159.2c0,0-5.3,15.8,0,17.4c4.2,1.3,8.9-1.3,14-9.3c0,0,1.7-5.1-4.2-7.6
			C640,157,636.2,159.2,636.2,159.2z"/>
		<path class="st11" d="M660.4,186.7c-0.4-2.1-10.6-9.8-10.6-9.8l-14,9.8v-4.2c2.1-1.7,2.5-3.6,2.5-3.6s1.7-0.6-6.3,1.1
			c-2.4,0.5-4.2,1.9-5.6,3.7c-0.3,7.5-1.5,25.8-5.9,36.8c0.3,2.8,0.9,5.5,1.8,7.8c4.7,11.9,23.3,3.8,27.1,3.4
			c3.8-0.4,0.4-19.1,0.4-19.1S660.8,188.8,660.4,186.7z"/>
		<path class="st38" d="M633.4,221.3c0,0-9.8-2.5-11.4,1.3c-1.7,3.8,6.4,10,13.1,6.1S633.4,221.3,633.4,221.3z"/>
		<path class="st38" d="M616.5,216.6c0,0-7.8-2.5-9.2,1.3c-1.4,3.8,5.1,10,10.5,6.1C623.3,220,616.5,216.6,616.5,216.6z"/>
		<path class="st39" d="M635.3,154.5c0,0-0.4,5.8,3.2,6.3c3.9,0.6,6.6,4,6.1,7.9c-0.4,3.4,2.2,1.2,3.1,0.4c0.2-0.2,0.5-0.3,0.8-0.1
			c0.6,0.3,1.3,1.1,0.7,3.7c-0.8,3.8,5.5-4.2,5.5-7.6c0-3.4-3-9.3-11-9.8C635.8,154.9,636.6,156.2,635.3,154.5z"/>
		<g>
			<path class="st19" d="M654.3,185.8c1.4-0.1,2.9,0.2,4.1,0.9c1.6,0.9,3.5,2.7,2.7,5.5c-1.3,4.7-12.3,26.3-27.6,37.3
				c0,0,1.3-4.7-1.7-7.6c-3-3,5.9-1.3,11-17C647.4,191.2,649.6,186.3,654.3,185.8z"/>
		</g>
		<g>
			<polygon class="st16" points="615.6,226.3 607.4,223.7 607.4,188.8 615.6,188.8 			"/>
			<polygon class="st33" points="623.9,225.5 615.6,226.3 615.6,188.8 623.9,188.8 			"/>
			<polygon class="st34" points="616,187.5 607.4,188.8 615.6,190.4 623.9,188.8 			"/>
		</g>
		<g>
			<path class="st19" d="M622.2,193.9c0,0-3,14.7-1.8,26.6c4.4-11,5.6-29.4,5.9-36.8C623,187.9,622.2,193.9,622.2,193.9z"/>
		</g>
		<g>
			<polygon class="st9" points="622.7,225.1 615.5,222.8 615.5,199.5 622.7,199.5 			"/>
			<polygon class="st40" points="629.9,224.3 622.7,225.1 622.7,199.5 629.9,199.5 			"/>
			<polygon class="st41" points="623,198.2 615.5,199.5 622.7,200.6 629.9,199.5 			"/>
		</g>
		<g>
			<polygon class="st16" points="631.1,226.7 623.9,225.2 623.9,211.2 631.1,211.2 			"/>
			<polygon class="st33" points="638.3,224.2 631.1,226.7 631.1,211.2 638.3,211.2 			"/>
			<polygon class="st34" points="631.4,210 623.9,211.2 631.1,211.9 638.3,211.2 			"/>
		</g>
		<path class="st38" d="M630.9,226.8c0,0-0.6-2.3-2.8-2.8c-2.1-0.4,0-1.7,1.3-1.7c0,0,5.1,1.7,4,4
			C632.1,229.2,630.9,226.8,630.9,226.8z"/>
	</g>
	<g>
		<path class="st35" d="M485.5,208.6c0,0-3.4,5.5-11,6.8s-5.5,5.5-0.4,5.5s10.2,0.4,13.1-1.7l0.8,1.3c0,0,6.4,0.8,7.2-0.4
			c0.8-1.3,1.3-10.2-1.7-14L485.5,208.6z"/>
		<path class="st35" d="M501.2,209.5c0,0-2.5,7.6-6.8,10.6c-4.2,3,3.4,5.1,9.3,3.4c5.9-1.7,5.9-9.3,4.2-15.3L501.2,209.5z"/>
		<path class="st36" d="M481.9,132.5c-0.1-0.4-3.2,15.5,0.6,47.3c3.8,31.8,1.7,29.7,1.7,29.7s5.5,5.5,9.8-1.7s0.8-25,0.8-25
			s-3.4-10.6-0.4-14c3-3.4,1.5-29.5,1.5-29.5S482.3,135,481.9,132.5z"/>
		<path class="st37" d="M492.5,147.3c3.5,5.2-2.5,23.7,7.6,36.5c0,0,7.5-0.8,6.8-8.9s5.7-29.1,0.1-39.9
			C507,135,489,142.2,492.5,147.3z"/>
		<path class="st36" d="M483.3,132.3c0,0,7.8,7.6,11.1,12.9c3.3,5.3-4.3,21.8,4.2,37.1c0,0,1.7,4.7,1.3,9.3c-0.4,4.7,0,18.7,0,18.7
			s5.1,4.2,9.3-1.7s-1.7-27.6-2.1-35.6c-0.4-8.1,6.8-28.8,1.7-39.9L483.3,132.3z"/>
		<path class="st38" d="M498.2,80.6c0,0,0,2.5-0.8,4.2s-2.1,2.5-2.1,2.5v4.2l14-9.8c0,0-1.3-1.7,0.8-5.1l-2.1-4.2L498.2,80.6z"/>
		<g>
			<path class="st19" d="M490.5,85.7c1.4-0.1-5.4,32.7-20.7,43.7c0,0,1.3-4.7-1.7-7.6c-3-3,5.9-1.3,11-17
				C483.6,91.1,485.8,86.2,490.5,85.7z"/>
		</g>
		<path class="st38" d="M495.6,64c0,0-5.3,15.8,0,17.4c4.2,1.3,8.9-1.3,14-9.3c0,0,1.7-5.1-4.2-7.6C499.5,61.9,495.6,64,495.6,64z"
			/>
		<path class="st4" d="M519.8,91.6c-0.4-2.1-10.6-9.8-10.6-9.8l-14,9.8v-4.2c2.1-1.7,2.5-3.6,2.5-3.6s1.7-0.6-6.3,1.1
			c-2.4,0.5-4.2,1.9-5.6,3.7c-0.3,7.5-1.5,25.8-5.9,36.8c0.3,2.8,0.9,5.5,1.8,7.8c4.7,11.9,23.3,3.8,27.1,3.4s0.4-19.1,0.4-19.1
			S520.2,93.7,519.8,91.6z"/>
		<path class="st39" d="M495.6,65.9c0.5,0.1,1.1,0,1.7-0.1c4.2-0.7,7.2,2.5,8.1,6.6c0.3,1.2,0.9,2.4,1.8,1.5
			c0.2-0.2,0.5-0.3,0.8-0.1c0.6,0.3,1.3,1.1,0.7,3.7c-0.8,3.8,5.5-4.2,5.5-7.6c0-3.4-3-9.3-11-9.8c-4.5-0.2-7,1.5-8.5,2.8
			C493.6,63.9,494.1,65.8,495.6,65.9z"/>
		<g>
			<path class="st19" d="M513.8,90.7c1.4-0.1,2.9,0.2,4.1,0.9c1.6,0.9,3.5,2.7,2.7,5.5c-1.3,4.7-12.3,26.3-27.6,37.3
				c0,0,1.3-4.7-1.7-7.6c-3-3,5.9-1.3,11-17C506.9,96.1,509.1,91.1,513.8,90.7z"/>
		</g>
		<g>
			<polygon class="st42" points="499.8,134.4 474.9,131.1 459.1,134.9 459.2,135.2 482.5,137.7 499.8,134.5 			"/>
		</g>
		<path class="st38" d="M491.8,126.9c0,0-9.2-0.2-10.1,3.3c-0.8,3.5,6.1,4.5,12.9,2.4C496.5,132.1,491.8,126.9,491.8,126.9z"/>
		<g>
			<polygon class="st43" points="483,137.3 476,117.2 453.6,114.2 453.1,114.6 459.2,135.2 482.6,137.7 			"/>
		</g>
	</g>
	<g>
		<g>
			<path class="st44" d="M527.6,318c2.5-1.8,3.4-5.6,3.6-9c-0.3-0.7-0.7-1.7-1.6-3.2c-1.7-2.9-4.5-1-4.5-1l-1.3,13.3
				c-0.1,0.1-0.2,0.1-0.3,0.2C524,319.2,525.1,319.7,527.6,318z"/>
			<path class="st35" d="M531.2,308.9c-0.2,3.4-1.1,7.2-3.6,9c-2.5,1.7-3.6,1.3-4.2,0.3c-4.7,2.9-4.1,4.4-3.3,5.3
				c0.5,0.6,1.7,0.3,2.5,0c2.2-0.6,6.4-2.5,8.9-13.6C531.5,310,531.5,309.6,531.2,308.9z"/>
		</g>
		<g>
			<path class="st44" d="M533.6,318c2-2.7,3.4-5.6,3.6-9c-0.3-0.7-0.7-1.7-1.6-3.2c-1.7-2.9-4.5-1-4.5-1s-2.1,12.9-2.2,12.9
				C529.4,318.7,531.8,320.3,533.6,318z"/>
			<path class="st35" d="M537.2,308.9c-0.2,3.4-1.6,6.4-3.6,9c-1.8,2.4-4.1,0.7-4.7-0.2c-4.1,4.2-3.1,5.2-2.3,6.1
				c0.5,0.6,3.1,0.5,3.9,0.3c2.2-0.6,4.6-3,7.1-14.2C537.5,310,537.4,309.6,537.2,308.9z"/>
		</g>
		<ellipse class="st44" cx="551.9" cy="215.3" rx="6.9" ry="9.1"/>
		<path class="st36" d="M532.8,267.9c0,0-8.6-0.4-8.9,8.7c-0.3,9.2,1,30.6,1,30.6s0.7,3.4,6.7-1s4.1-29.9,4.1-29.9l3.1-3.1l0.9-3.6
			L532.8,267.9z"/>
		<path class="st39" d="M561.1,254c0,0,9.3,5.6,6.7,15c-2.6,9.4-11.6,9.2-20.2,9.5c-8.6,0.3-8.2-1.2-8.2-1.2s2.1,19.9-4.9,31.1
			c0,0-5,2.5-4.3-2.9c0.6-5.4-2.2-27.3,0.8-32.2c2.9-4.9,3.5-4.4,6.4-4.6c2.9-0.3,6.9-12.7,6.9-12.7L561.1,254z"/>
		<path class="st36" d="M562,254c0,0,9.3,5.6,6.7,15c-2.6,9.4-11.6,9.2-20.2,9.5c-8.6,0.3-8.2-1.2-8.2-1.2s2.1,19.9-4.9,31.1
			c0,0-5,2.5-4.3-2.9c0.6-5.4-2.2-27.3,0.8-32.2c2.9-4.9,3.5-4.4,6.4-4.6c2.9-0.3,6.9-12.7,6.9-12.7L562,254z"/>
		<g>
			<path class="st45" d="M560.5,206.2c0.4-3.9-2.9-5.1-5.4-5.5c-1,1.1-1.3,2.3-1.3,2.3c5.7-0.1,5.3,3.7,5.3,3.7
				c-1.7,4.4-0.9,7.9,0.8,10.3C560.5,214.9,560,211.1,560.5,206.2z"/>
			<path class="st46" d="M569,215.9c0,0,1.1,2.2-1.9,2.4c-3,0.3-1.4-9-0.9-12.5c0.5-3.5-1.9-6.4-6.5-6.8c-2.2-0.2-3.6,0.7-4.5,1.7
				c2.5,0.3,5.8,1.6,5.4,5.5c-0.5,4.9,0,8.7-0.5,10.9c2.1,3,5.5,4.5,7.5,4.6c3.8,0.2,3.4-3.4,3.6-4.9
				C571.4,215.2,569,215.9,569,215.9z"/>
		</g>
		<path class="st44" d="M551.1,222.8c0,0,0.8,4-1.6,8l1.7,0.9l7.6-6.7c0,0-1-3.6-0.5-8.8L551.1,222.8z"/>
		<path class="st46" d="M554.5,207.8c0,0.2-6.2,9.5-10.2,8.9c-4.1-0.7-0.9-8.9,0.6-10.5c1.8-2,3.8-4.1,9-3.9s5.6,3.6,5.7,7.1
			c0.1,2.7,1.3,4.8-0.7,8.4C554.5,217.8,554.5,207.8,554.5,207.8z"/>
		<g>
			<path class="st19" d="M550.6,225.5c0,0-5.6,0.3-6.8,4.6c-1.1,4.3,0.5,8.9,0.5,8.9L550.6,225.5z"/>
		</g>
		<g>
			<path class="st19" d="M546.4,229.2c0.3-0.2,1.9,1.3,3.5,4.5c1.6,3.2,2.3,26.5-15,33.4c-0.6,0.2-1.3,0.3-1.9,0.2
				c-1.3-0.2-3.2-1.3-0.8-3.9c3.6-3.7,9.3-8.1,11.2-13.7c1.4-4.2,1.5-8.7,0.6-13.8C543,230.4,546.4,229.2,546.4,229.2z"/>
		</g>
		<path class="st4" d="M548.1,226c0.6-0.2,1.6-0.5,3-0.9c0.4,1.6-0.3,4.9-0.3,4.9l7.9-5c0,0,4.9,0.9,5.6,2.9c0.7,2,4.7,26-2,30.9
			c-6.7,4.9-17.7-2.1-17.7-2.1s2.3-3.3,1.1-11.6c0,0-2.8-1.7-2.9-4.2c-0.1-2.4,1.7-8.5,4.5-14.2C547.5,226.3,547.8,226.1,548.1,226z
			"/>
		<g>
			<path class="st19" d="M562.1,229.2c0.3-0.2,3.8-1.8,5.4,1.5c1.6,3.2,0.4,29.6-16.9,36.5c-0.6,0.2-1.3,0.3-1.9,0.2
				c-1.3-0.2-3.2-1.3-0.8-3.9c3.6-3.7,9.3-8.1,11.2-13.7c1.4-4.2,1.5-8.7,0.6-13.8C558.7,230.4,562.1,229.2,562.1,229.2z"/>
		</g>
		<g>
			<polygon class="st42" points="560.6,268.6 535.7,265.3 520,269.1 520,269.4 543.4,271.9 560.6,268.8 			"/>
		</g>
		<path class="st38" d="M548.1,264.2c0,0-6,0.1-6.6,2.1c-0.6,2,4.7,3.8,8.3,1.1S548.1,264.2,548.1,264.2z"/>
		<g>
			<polygon class="st43" points="543.8,271.5 536.8,251.4 514.4,248.4 513.9,248.8 520,269.4 543.4,271.9 			"/>
		</g>
	</g>
	<g>
		<path class="st29" d="M420.9,266c-1.5-0.2-3-0.2-4.5-0.1c0.5,0,1,0.1,1.5,0.1c14.9,1.6,26.7,14.8,26.2,29.4
			c-0.4,13.1-10.4,23-23.3,23.7c14.2,0.8,25.8-9.5,26.2-23.7C447.6,280.7,435.8,267.6,420.9,266z"/>
		<g>
			
				<ellipse transform="matrix(0.6482 -0.7615 0.7615 0.6482 -75.9113 420.5611)" class="st31" cx="417.2" cy="292.4" rx="25.7" ry="27.9"/>
			<g>
				<path class="st19" d="M419.4,313.1c-0.8,0-1.6,0-2.4-0.1c-11.9-1.3-21.3-11.8-21-23.4c0.3-10.2,8.4-17.9,18.8-17.9
					c0.8,0,1.6,0,2.4,0.1c11.9,1.3,21.3,11.8,21,23.4C437.9,305.4,429.9,313.1,419.4,313.1C419.4,313.1,419.4,313.1,419.4,313.1z"/>
			</g>
		</g>
		<g>
			<circle class="st16" cx="409.2" cy="278" r="1"/>
			<g>
				<circle class="st16" cx="425.1" cy="307.6" r="1"/>
			</g>
		</g>
		<g>
			<circle class="st16" cx="407.1" cy="303.5" r="1"/>
			<g>
				<circle class="st16" cx="427.3" cy="282" r="1"/>
			</g>
		</g>
		<g>
			<circle class="st16" cx="402.5" cy="294.8" r="1"/>
			<g>
				<circle class="st16" cx="431.8" cy="290.8" r="1"/>
			</g>
		</g>
		<circle class="st16" cx="431.8" cy="291" r="1"/>
		<g>
			<circle class="st16" cx="415.5" cy="308.6" r="1"/>
		</g>
		<g>
			<circle class="st16" cx="402.4" cy="284.4" r="1"/>
			<g>
				<circle class="st16" cx="431.8" cy="300.7" r="1"/>
			</g>
		</g>
		<polyline class="st47" points="419.3,277.8 419.3,296.2 408.2,291 		"/>
	</g>
	<g>
		<polygon class="st16" points="461.1,217.9 482.6,211.1 482.6,133.7 460.3,133.7 		"/>
		<g>
			<polygon class="st33" points="439.6,213.3 461.1,217.9 460.3,133.7 439.6,133.7 			"/>
			<polygon class="st34" points="461.2,131.6 439.6,133.7 461.1,137.5 482.6,133.7 			"/>
		</g>
	</g>
	<g>
		<polygon class="st9" points="425.7,218.4 447.2,211.6 447.2,152.9 425.7,152.9 		"/>
		<polygon class="st40" points="404.2,212.7 425.7,218.4 425.7,152.9 404.2,152.9 		"/>
		<polygon class="st41" points="424.7,151.3 447.2,152.9 425.7,154.9 404.2,152.9 		"/>
	</g>
	<g>
		<polygon class="st16" points="400,223.8 421.5,217 421.5,183 400,183 		"/>
		<polygon class="st33" points="378.5,219.7 400,223.8 400,183 378.5,183 		"/>
		<polygon class="st34" points="399.1,180.9 421.5,183 400,184.8 378.5,183 		"/>
	</g>
	<g>
		<g>
			<path class="st44" d="M476.3,278.8c-2.5-1.8-3.4-5.6-3.6-9c0.3-0.7,0.7-1.7,1.6-3.2c1.7-2.9,4.5-1,4.5-1l1.3,13.3
				c0.1,0.1,0.2,0.1,0.3,0.2C480,280.1,478.8,280.5,476.3,278.8z"/>
			<path class="st35" d="M472.7,269.8c0.2,3.4,1.1,7.2,3.6,9c2.5,1.7,3.6,1.3,4.2,0.3c4.7,2.9,4.1,4.4,3.3,5.3
				c-0.5,0.6-1.7,0.3-2.5,0c-2.2-0.6-6.4-2.5-8.9-13.6C472.4,270.8,472.5,270.5,472.7,269.8z"/>
		</g>
		<path class="st36" d="M476.5,230.2c-0.2-0.1-0.4-0.3-0.6-0.4c-8.3-5.1-19.8-14.7-19.8-14.7s1.3,12.1,1.3,12.6
			c-0.1,0.5,7.9,11,8.1,11.2c0.1,0.1,1.2-0.2,2.7-0.5c-0.3,5.2-1,24.8,4.2,28.6c6,4.4,6.7,1,6.7,1s1.3-21.5,1-30.6
			C480.1,236.6,481,232.9,476.5,230.2z"/>
		<g>
			<path class="st44" d="M470.4,278.8c-2-2.7-3.4-5.6-3.6-9c0.3-0.7,0.7-1.7,1.6-3.2c1.7-2.9,4.5-1,4.5-1s2.1,12.9,2.2,12.9
				C474.5,279.5,472.2,281.2,470.4,278.8z"/>
			<path class="st35" d="M466.8,269.8c0.2,3.4,1.6,6.4,3.6,9c1.8,2.4,4.1,0.7,4.7-0.2c4.1,4.2,3.1,5.2,2.3,6.1
				c-0.5,0.6-3.1,0.5-3.9,0.3c-2.2-0.6-4.6-3-7.1-14.2C466.4,270.8,466.5,270.5,466.8,269.8z"/>
		</g>
		<path class="st44" d="M445.1,177.5c0,4.3,2.7,7.8,6.9,7.8c4.5,0,5.5-3.9,6.4-8.1c0.8-4.2-2.6-7.5-6.4-7.5S445.1,173.2,445.1,177.5
			z"/>
		<path class="st39" d="M467.7,235.5c0,0-3.6,19.7,2.7,31.4c0,0,4.8,2.8,4.5-2.6s4.8-27.8,0.1-31
			C452.9,218.1,467.7,235.5,467.7,235.5z"/>
		<path class="st36" d="M442,214.9c0,0-9.3,5.6-6.7,15s11.6,9.2,20.2,9.5s8.2-1.2,8.2-1.2s-2.1,19.9,4.9,31.1c0,0,5,2.5,4.3-2.9
			s6.2-28.2,1.4-31.4c-5.5-3.7-5.9-3.3-9.7-7.1c-2.1-2.1-5.8-11-5.8-11L442,214.9z"/>
		<path class="st44" d="M452.9,183.7c0,0-0.8,4,1.6,8l-1.7,0.9l-7.6-6.7c0,0,1-3.6,0.5-8.8L452.9,183.7z"/>
		<g>
			<path class="st19" d="M453.4,186.3c0,0,5.6,0.3,6.8,4.6c1.1,4.3-0.5,8.9-0.5,8.9L453.4,186.3z"/>
		</g>
		<g>
			<path class="st19" d="M457.2,188.8c-0.3-0.2-1.7,1.2-3.2,4.3c-1.4,3-2.3,23.6,13.4,30.2c0.6,0.2,1.4-0.2,2-0.3
				c1.2-0.2,2.8,0.8,0.6-1.7c-3.3-3.5-8.4-7.6-10.1-13c-1.2-4-1.3-8.2-0.5-13C460.3,190,457.2,188.8,457.2,188.8z"/>
		</g>
		<path class="st11" d="M455.8,186.9c-0.6-0.2-1.6-0.5-3-0.9c-0.4,1.6,0.3,4.9,0.3,4.9l-7.9-5c0,0-4.9,0.9-5.6,2.9
			c-0.7,2-4.7,26,2,30.9c6.7,4.9,17.7-2.1,17.7-2.1s-2.3-3.3-1.1-11.6c0,0,2.8-1.7,2.9-4.2c0.1-2.4-1.7-8.5-4.5-14.2
			C456.4,187.2,456.1,186.9,455.8,186.9z"/>
		<g>
			<path class="st19" d="M442.2,188.8c-0.3-0.2-3.4-1.7-4.9,1.4c-1.4,3-0.4,28,15.3,34.6c0.6,0.2,1.1,0.3,1.7,0.2
				c1.2-0.2,2.9-1.3,0.7-3.7c-3.3-3.5-8.4-7.6-10.1-13c-1.2-4-1.3-8.2-0.5-13C445.3,190,442.2,188.8,442.2,188.8z"/>
		</g>
		<path class="st38" d="M455.6,222.4c0,0,6,0.1,6.6,2.1c0.6,2-4.7,3.8-8.3,1.1C450.2,222.8,455.6,222.4,455.6,222.4z"/>
		<g>
			<polygon class="st43" points="457.4,224.2 461.7,204.1 475.2,201.1 475.5,201.5 471.8,222.1 457.7,224.6 			"/>
		</g>
		<path class="st46" d="M450.2,169.4c0,0-6.9,0.9-7.3,13.2c-0.1,1.7,0.4,2.5,0.3,3.5c-0.2,1.8-0.8,2.9-0.2,4.2
			c0.4,0.7,1.6,1.2,2,2.6c0.1,0.4-0.5,1.2,0,3.6c0.3,1.2,1.1,0.8,1.6,2.7c0.2,0.8-0.3,1.2-0.2,2.9c0.2,5.4,3.9,5.8,5.9,5
			c1-0.4,1.4-1.6,1-2.5c-0.4-0.9-1.4-1.8-2-3.2c-0.8-1.8-0.7-4.3-1.4-6.5c-0.7-2.2-2.5-4.3-2.7-6.5c-0.1-1.2,0.9-2.2,1-3.4
			c0.1-2.2,1-3.9,2.6-4.9c3.9-2.7,2.1-5.8,3.6-6c1.3-0.1,2.2,0.2,3,0.8c1.3,0.9,3.1-0.1,2.9-1.7c0-0.1,0-0.1,0-0.2
			C459.6,169.8,454.5,168.2,450.2,169.4z"/>
		<path class="st38" d="M455.7,224.6c0,0,2.3-0.4,3.6-1.6c1.2-1.3,2.6-1.9,3-0.4c0.4,1.5,0.3,1.8-0.1,2.4c-0.4,0.7-3.5,1-3.5,1
			L455.7,224.6z"/>
		<path class="st38" d="M465.6,223.6c0,0,2.3-0.4,3.6-1.6c1.2-1.3,3-2,3-0.4c0,0.9-0.3,1.8-0.7,2.2c-0.1,0.1-0.7,0.6-1,0.7
			c-1.5,0.6-2.3,0.4-3.7-0.3L465.6,223.6z"/>
	</g>
	<g>
		<polygon class="st9" points="699.2,281.7 692,279.8 692,256.4 699.2,256.1 		"/>
		<polygon class="st40" points="706.4,280.6 699.2,281.7 699.2,256.1 706.4,255.7 		"/>
		<polygon class="st41" points="699.5,254.8 692,256.4 699.2,257.2 706.4,255.7 		"/>
	</g>
	<g>
		<polygon class="st16" points="707.6,282.9 700.4,281.8 700.4,267.8 707.6,267.4 		"/>
		<polygon class="st33" points="714.8,280 707.6,282.9 707.6,267.4 714.8,267.1 		"/>
		<polygon class="st34" points="707.9,266.2 700.4,267.8 707.6,268.1 714.8,267.1 		"/>
	</g>
	<g>
		<polygon class="st16" points="682.6,280.4 674.3,278.3 674.3,243.4 682.6,242.9 		"/>
		<polygon class="st33" points="690.8,279.2 682.6,280.4 682.6,242.9 690.8,242.5 		"/>
		<polygon class="st34" points="682.9,241.7 674.3,243.4 682.6,244.6 690.8,242.5 		"/>
	</g>
	<g>
		<polygon class="st9" points="689.6,282.2 682.4,280.4 682.4,257 689.6,256.6 		"/>
		<polygon class="st40" points="696.8,281.1 689.6,282.2 689.6,256.6 696.8,256.3 		"/>
		<polygon class="st41" points="689.9,255.4 682.4,257 689.6,257.7 696.8,256.3 		"/>
	</g>
	<g>
		<polygon class="st16" points="698,283.5 690.8,282.3 690.8,268.4 698,268 		"/>
		<polygon class="st33" points="705.2,280.6 698,283.5 698,268 705.2,267.6 		"/>
		<polygon class="st34" points="698.3,266.8 690.8,268.4 698,268.7 705.2,267.6 		"/>
	</g>
	<path class="st24" d="M384.8,150c-1.1-3.1-3.5-5.6-7-5.5c-2.5,0.1-5.3,2.1-6.1,4.6c-0.3,0.9-0.2,2.3,0,3.2c0.3,1.4,0.4,1.4,0.7,2.4
		c0.7,2,1.3,4,1.7,6c1,5.2,1.5,10.6,1,15.9c-0.2,1.6-0.4,3.2-0.7,4.8c0,0.4-0.4,2-0.7,2.3C380.6,177.5,387.6,157.4,384.8,150"/>
	<g>
		<path class="st48" d="M198.5-52.3c-45.1-22.8-101.7-30.1-146-1.2C21-33,4.5,10.1,18.7,42.7c5.3,11.9,21,25.4,32.9,33.4
			c17.6,11.6,18.7,11.8,32.8,19.2c28.7,15.3,55.8,31.2,81.8,49.2c65.6,45.7,125.3,97.1,171,156.3c14,18,26.8,36.6,39.7,55.2
			c3,4.1,14.9,24.4,13.9,28.7C418.4,266.1,308,3.3,198.5-52.3"/>
	</g>
</g>
</svg>
