<svg xmlns="http://www.w3.org/2000/svg" viewBox="0 0 89 96.33"><defs><style>.cls-1{fill:#fff;}</style></defs><title>bibimen_ic_02</title><g id="Layer_2" data-name="Layer 2"><g id="Layer_4" data-name="Layer 4"><path class="cls-1" d="M81.15,96.33H1.57A1.57,1.57,0,0,1,0,94.76v-89A1.57,1.57,0,0,1,1.57,4.19H81.15a1.57,1.57,0,0,1,1.57,1.57v89A1.57,1.57,0,0,1,81.15,96.33Zm-78-3.14H79.58V7.33H3.14Z"/><path class="cls-1" d="M87.43,92.14a1.57,1.57,0,0,1-1.57-1.57V3.14h-78A1.57,1.57,0,1,1,7.85,0H87.43A1.57,1.57,0,0,1,89,1.57v89A1.57,1.57,0,0,1,87.43,92.14Z"/><path class="cls-1" d="M10,96.33a1.57,1.57,0,0,1-1.57-1.57v-89a1.57,1.57,0,0,1,3.14,0v89A1.57,1.57,0,0,1,10,96.33Z"/><path class="cls-1" d="M81.15,96.33a1.57,1.57,0,0,1-.87-2.88l6.28-4.19a1.57,1.57,0,0,1,1.74,2.62L82,96.07A1.55,1.55,0,0,1,81.15,96.33Z"/><path class="cls-1" d="M1.57,7.33A1.57,1.57,0,0,1,.7,4.45L7,.26A1.57,1.57,0,1,1,8.72,2.88L2.44,7.07A1.55,1.55,0,0,1,1.57,7.33Z"/><path class="cls-1" d="M60.35,35.6a1.52,1.52,0,0,1-.59-.12,1.57,1.57,0,0,1-1-1.45V5.76a1.57,1.57,0,0,1,1.57-1.57H72.77a1.57,1.57,0,0,1,1.57,1.57V34a1.57,1.57,0,0,1-2.68,1.11L66.5,30l-5,5.15A1.56,1.56,0,0,1,60.35,35.6Zm6.14-9.42a1.57,1.57,0,0,1,1.11.46l3.6,3.6V7.33H61.92V30.18l3.45-3.53a1.54,1.54,0,0,1,1.11-.47Z"/><path class="cls-1" d="M55,76.44H30.89a1.58,1.58,0,0,1,0-3.15H55a1.58,1.58,0,0,1,0,3.15Z"/><path class="cls-1" d="M59.16,83.77H26.7a1.58,1.58,0,0,1,0-3.15H59.16a1.58,1.58,0,0,1,0,3.15Z"/><path class="cls-1" d="M52.88,71.2h-22a1.56,1.56,0,0,1-1.56-1.41l-2-19a8.59,8.59,0,0,1-4.17-3.89,6.29,6.29,0,0,1,0-5.12c1.68-4.19,5.71-5.27,8.52-5.27.87-3.87,3.62-9.33,9.69-9.33,7.4,0,11.16,4,11.9,8.31a8.44,8.44,0,0,1,5.36,1.81,6.39,6.39,0,0,1,2.11,5.07c0,4.9-2.35,7-4.31,7.6l-2,19.78A1.57,1.57,0,0,1,52.88,71.2ZM32.3,68.06H51.46l1.95-19.53A1.56,1.56,0,0,1,55,47.12c.24,0,2.62-.25,2.62-4.71a3.35,3.35,0,0,0-1-2.7c-1.3-1.13-3.71-1.09-4.52-1a1.59,1.59,0,0,1-1.79-1.56c0-3.29-2.34-6.8-8.9-6.8-5.82,0-6.78,7.7-6.82,8a1.57,1.57,0,0,1-1.82,1.37c-.2,0-5.07-.76-6.66,3.22A3.24,3.24,0,0,0,26,45.61a6.2,6.2,0,0,0,3.3,2.64,1.58,1.58,0,0,1,1.06,1.32Z"/><path class="cls-1" d="M53.92,62.82h-23a1.57,1.57,0,0,1,0-3.14h23a1.57,1.57,0,0,1,0,3.14Z"/></g></g></svg>