<svg xmlns="http://www.w3.org/2000/svg" viewBox="0 0 111.31 99.79"><defs><style>.cls-1{fill:#fff;}</style></defs><title>bibimen_ic_01</title><g id="Layer_2" data-name="Layer 2"><g id="Layer_4" data-name="Layer 4"><path class="cls-1" d="M1.5,99.79A1.5,1.5,0,0,1,0,98.29V32.46a.57.57,0,0,1,0-.13A43.07,43.07,0,0,1,7,11.86C11.62,5,18,1.12,24.92.87c6.72-.24,13.1,3,18,9.21,9.17,11.62,9.71,31.25,1.21,43.75-4,5.83-9.4,9.15-15.31,9.36-5.74.22-11.18-2.58-15.33-7.85-7.78-9.86-8.24-26.53-1-37.14,3.39-5,8-7.81,13.09-8,4.9-.16,9.57,2.21,13.11,6.7,6.62,8.39,7,22.56.87,31.58-2.89,4.25-6.87,6.68-11.21,6.84S20.07,53.44,17,49.59c-5.64-7.15-6-19.21-.75-26.89,2.49-3.65,5.91-5.73,9.64-5.86S33,18.46,35.6,21.76c4.8,6.1,5.09,16.38.63,22.94-2.13,3.13-5.08,4.93-8.3,5a10.16,10.16,0,0,1-8.34-4.24c-4.18-5.3-4.42-13.91-.55-19.6,1.91-2.81,4-4.28,6.2-4.36s4.23,1.16,6.21,3.67C35,29.75,35.23,37.12,31.92,42c-1.8,2.64-4,2.69-5.13,2.49-2.45-.44-4.68-2.84-5.43-5.84a1.5,1.5,0,0,1,2.91-.73c.46,1.83,1.77,3.38,3,3.61.77.15,1.48-.27,2.13-1.21,2.53-3.73,2.37-9.8-.35-13.26-.93-1.17-2.3-2.61-3.74-2.52s-2.9,1.69-3.83,3.05c-3.12,4.59-2.93,11.8.42,16.05a7.26,7.26,0,0,0,5.88,3.1A7.64,7.64,0,0,0,33.75,43c3.77-5.55,3.54-14.25-.51-19.39-2-2.53-4.54-3.88-7.21-3.78s-5.32,1.71-7.25,4.55c-4.55,6.68-4.27,17.15.61,23.34,2.43,3.08,5.55,4.7,8.79,4.6S34.67,50.25,37,46.8c5.46-8,5.12-20.59-.74-28-2.94-3.73-6.74-5.71-10.66-5.56s-7.87,2.51-10.7,6.68c-6.54,9.61-6.14,24.68.89,33.6,3.55,4.49,8.13,6.88,12.87,6.7,4.93-.17,9.52-3,12.94-8,7.82-11.51,7.33-29.54-1.08-40.21C36.27,6.53,30.76,3.7,25,3.87c-5.94.21-11.47,3.65-15.57,9.68A40.13,40.13,0,0,0,3,32.53V98.29A1.5,1.5,0,0,1,1.5,99.79Z"/><path class="cls-1" d="M47.23,64.37a1.48,1.48,0,0,1-1.07-.45,1.5,1.5,0,0,1,0-2.12c9.41-9.24,11.91-36.67,4.62-50.61A24.8,24.8,0,0,0,44.1,2.7,1.5,1.5,0,1,1,45.89.3a27.54,27.54,0,0,1,7.57,9.5c7.92,15.14,5.16,44-5.18,54.14A1.48,1.48,0,0,1,47.23,64.37Z"/><path class="cls-1" d="M54.23,64.37a1.48,1.48,0,0,1-1.07-.45,1.5,1.5,0,0,1,0-2.12c9.41-9.24,11.91-36.67,4.62-50.61A24.8,24.8,0,0,0,51.1,2.7,1.5,1.5,0,1,1,52.89.3a27.54,27.54,0,0,1,7.57,9.5c7.92,15.14,5.16,44-5.18,54.14A1.48,1.48,0,0,1,54.23,64.37Z"/><path class="cls-1" d="M6.81,99.79a1.5,1.5,0,0,1-1.5-1.5v-44a1.5,1.5,0,0,1,3,0v44A1.5,1.5,0,0,1,6.81,99.79Z"/><path class="cls-1" d="M12.81,99.79a1.5,1.5,0,0,1-1.5-1.5v-34a1.5,1.5,0,1,1,3,0v34A1.5,1.5,0,0,1,12.81,99.79Z"/><path class="cls-1" d="M18.81,99.79a1.5,1.5,0,0,1-1.5-1.5V67.79a1.5,1.5,0,0,1,3,0v30.5A1.5,1.5,0,0,1,18.81,99.79Z"/><path class="cls-1" d="M24.81,99.79a1.5,1.5,0,0,1-1.5-1.5V70.79a1.5,1.5,0,0,1,3,0v27.5A1.5,1.5,0,0,1,24.81,99.79Z"/><path class="cls-1" d="M30.81,99.79a1.5,1.5,0,0,1-1.5-1.5V70.79a1.5,1.5,0,0,1,3,0v27.5A1.5,1.5,0,0,1,30.81,99.79Z"/><path class="cls-1" d="M36.81,99.79a1.5,1.5,0,0,1-1.5-1.5V67.79a1.5,1.5,0,0,1,3,0v30.5A1.5,1.5,0,0,1,36.81,99.79Z"/><path class="cls-1" d="M111.31,31.29h-14V24.22a4.41,4.41,0,0,0-4-4.39v0h-25v4H78.8a1.51,1.51,0,0,1,1.51,1.51v1a1.51,1.51,0,0,1-1.51,1.52H68.31v4H78.8a1.51,1.51,0,0,1,1.51,1.51v2a1.51,1.51,0,0,1-1.51,1.52H68.31v4H78.8a1.51,1.51,0,0,1,1.51,1.51v1a1.51,1.51,0,0,1-1.51,1.52H68.31v4h25v0a4.41,4.41,0,0,0,4-4.39V37.29h14Z"/></g></g></svg>