<svg xmlns="http://www.w3.org/2000/svg" viewBox="0 0 82.72 98.45"><defs><style>.cls-1{fill:#fff;}</style></defs><title>bibimen_ic_03</title><g id="Layer_2" data-name="Layer 2"><g id="Layer_4" data-name="Layer 4"><path class="cls-1" d="M22.31,15.8S5.58,27,6.51,46.47s7.43,23.24,7.43,23.24,5.58-1.86,8.37-11.16S30.67,42.75,39,42.75c0,0-.93-5.57,5.57-6.5S53,40.89,53,46.47c0,0,16.73,8.37,0,35.32A28.92,28.92,0,0,0,69.71,61.34c3.71-15.8-4.65-22.3,13-40.89,0,0-15.8-3.72-28.81,12.08,0,0-6.51-11.15-3.72-20.45,0,0,0-5.57,6.51-12.08C56.7,0,26,5.58,23.24,38.11,23.24,38.11,17.66,25.09,22.31,15.8Z"/><path class="cls-1" d="M0,89.23S.93,92,6.51,95.73c4.7,3.14,16.73,7.44,39-12.08,0,0,13-11.15,10.23-26,0,0,0-5.57-7.44-6.5,0,0,.93-8.37-3.72-10.23,0,0,1.86.93,0,8.37,0,0-9.29-4.65-14.87,6.51S20.45,77.14,0,89.23Z"/></g></g></svg>