<svg xmlns="http://www.w3.org/2000/svg" viewBox="0 0 28.44 28.56"><defs><style>.cls-1{fill:#e43d30;}</style></defs><title>Asset 2</title><g id="Layer_2" data-name="Layer 2"><g id="_2단계" data-name="2단계"><path class="cls-1" d="M26.59,3.56H1.86A1.82,1.82,0,0,1,0,1.78,1.82,1.82,0,0,1,1.86,0H26.59a1.82,1.82,0,0,1,1.85,1.78A1.82,1.82,0,0,1,26.59,3.56Z"/><path class="cls-1" d="M26.59,20.22H8.67a1.78,1.78,0,1,1,0-3.55H26.59a1.78,1.78,0,1,1,0,3.55Z"/><path class="cls-1" d="M26.59,11.89H8.67a1.78,1.78,0,1,1,0-3.56H26.59a1.78,1.78,0,1,1,0,3.56Z"/><path class="cls-1" d="M26.59,28.56H1.86a1.78,1.78,0,1,1,0-3.56H26.59a1.78,1.78,0,1,1,0,3.56Z"/></g></g></svg>