<?xml version="1.0" encoding="utf-8"?>
<!-- Generator: Adobe Illustrator 24.0.0, SVG Export Plug-In . SVG Version: 6.00 Build 0)  -->
<svg version="1.1" id="_xB7__xB9_ÀÌ_xBE_î_1" xmlns="http://www.w3.org/2000/svg" xmlns:xlink="http://www.w3.org/1999/xlink"
	 x="0px" y="0px" viewBox="0 0 419.2 198.8" style="enable-background:new 0 0 419.2 198.8;" xml:space="preserve">
<style type="text/css">
	.st0{fill:#80BA27;}
	.st1{fill:#FFFFFF;}
	.st2{fill:#E9500E;}
</style>
<g>
	<path d="M348.7,52c-18.5,0-31.5,5.1-38.9,15.3c-0.3-6.3-0.8-12.6-1.4-18.8c-0.3-3.4-2.3-13.1-6-19.2c-3.4-5.8-7.5-11.2-12.7-15.5
		c-2.3-1.9-5-3.7-7.9-4.5c-1.7-0.5-3.5-0.8-5.3-0.8c-5.4,0-10.3,2.5-13.2,6.8c-3.6,5.3-3.5,12.9,0.3,18c0.8,1.1,1.7,1.9,2.6,2.7v4.6
		c0,0,0,0,0,0v12.7c-2.7-0.6-5.3-0.8-8.2-0.8c-14,0-24.6,5.3-30.9,14.9c0-6.3,0-13.2,0-21.1c0-0.2,0-0.5,0-0.7
		c-0.2-2.1-0.7-4-1.6-5.7c-4.3-8.3-13.7-11.2-20.5-11.2c-6.8,0-16.2,2.9-20.5,11.2c-1.3,2.5-1.5,4.9-1.6,6.3l0,0.3
		c0,0.1,0,0.2,0,0.3c0,0.2,0,0.4,0,22.1c-7-11.4-20.3-17-40-17c-0.3,0-0.5,0-0.8,0h-0.2c-19.2,0-27.5,6-30.2,7.9l-0.2,0.1
		c-0.1,0-0.1,0.1-0.2,0.1c-2.7,2-8,6.7-9.4,12.7c-6.7-11.8-19.5-20.5-39.2-20.5h-0.3c-30.2,0.1-44.8,13-44.8,39.4v15.9
		c0,1.5,0.1,6.2,0.3,9.9c0.2,7.4,0.9,14.8,1.6,22.1c0.3,3.4,2.3,13.1,6,19.2c3.4,5.8,7.5,11.2,12.8,15.5c2.3,1.9,5.1,3.7,7.9,4.5
		c1.8,0.5,3.5,0.7,5.3,0.7c5.4,0,10.3-2.5,13.2-6.8c3.6-5.3,3.5-12.9-0.3-18c-0.8-1.1-1.7-1.9-2.6-2.6v-4.6c0,0,0,0,0,0V135
		c2.7,0.5,5.3,0.8,8.2,0.8c15.1,0,26.3-6.2,32.4-17.4c4.6,8.6,15.3,17.2,39.9,17.2c0.9,0,7.2-0.2,9.9-0.5
		c14.6-1.5,24.8-6.8,30.6-16.2v1.9c0,0.3,0,0.7,0.1,1c0.3,2.3,1.1,4.4,2.6,6.2c5.6,7,16.3,7.6,19.5,7.6s14-0.6,19.5-7.6
		c2-2.6,2.4-5.3,2.5-6.6l0,0c0-0.5,0.1-1.6,0.1-4.5c6.9,11.1,19.5,19,38.3,19h0.3c21.6-0.1,35.2-6.7,41.3-20.2
		c6.5,13.3,20.3,19.8,41.8,19.8c31.5,0,46.2-13.2,46.2-41.4C394.7,65.8,379.6,52,348.7,52"/>
	<path class="st0" d="M217.6,46.4c-0.1-0.7-0.2-1.5-0.6-2.1c-2.2-4.3-7.7-6.2-12.3-6.2c-4.6,0-10.1,1.9-12.3,6.2
		c-0.5,0.9-0.5,2.1-0.6,3.1c0,0.2,0,73.5,0,73.5c0.1,0.5,0.2,1,0.6,1.4c2.2,2.8,7.7,4.1,12.3,4.1c4.6,0,10.1-1.3,12.3-4.1
		c0.5-0.6,0.5-1.4,0.6-2C217.6,120.1,217.6,46.4,217.6,46.4"/>
	<path class="st0" d="M311.6,94.1c0-21.9,10.1-32.8,37-32.8c26.9,0,36.7,10.9,36.7,32.8c0,22.1-9.8,32.1-36.9,32.1
		C321.5,126.2,311.6,116.1,311.6,94.1 M358.9,89.3c0-1.9-0.1-3.8-0.6-5.5c-0.9-3.7-3.4-7.2-9.6-7.2c-6.3,0-8.9,3.6-9.8,7.2
		c-0.5,1.7-0.6,3.7-0.6,5.5c-0.1,1.7,0,3.4,0,4.8c0,1.4-0.1,3.1,0,4.8c0,1.8,0.1,3.8,0.6,5.5c0.9,3.7,3.5,7.2,9.8,7.2
		c6.2,0,8.7-3.6,9.6-7.2c0.5-1.7,0.6-3.7,0.6-5.5c0.1-1.7,0-3.5,0-4.8C358.9,92.8,359,91,358.9,89.3"/>
	<path class="st0" d="M142.6,61.2L142.6,61.2c-17.9-0.2-24.3,5.2-26.1,6.4c0,0-6.8,5.1-5.9,8.9c0.9,3.9,5.8,2.3,9.2,1.6
		c6.3-1.3,13.3-2.1,19.5-2.1c4.6,0,15,1.5,15,8.3v3.1c-22-3.3-46.1,0.8-46.1,17.5c0,14.8,12.9,21.5,33.9,21.5c0.9,0,6.7-0.2,9-0.4
		c20.6-2,28.3-12.1,28.3-31.7C179.4,72.2,169.6,61.2,142.6,61.2 M149.7,111.5c-1.2,0.4-2.7,0.4-4,0.5h-3.1c-1.3-0.1-2.7-0.2-3.9-0.5
		c-2.6-0.7-5.2-2.4-5.2-6.9c0-4.5,2.6-6.4,5.2-7.1c1.2-0.4,2.6-0.4,3.9-0.5h3.1c1.4,0.1,2.8,0.2,4,0.5c2.6,0.7,5.2,2.5,5.2,7.1
		C154.9,109.1,152.3,110.9,149.7,111.5"/>
	<path class="st1" d="M217.6,46.4c-0.1-0.7-0.2-1.5-0.6-2.1c-2.2-4.3-7.7-6.2-12.3-6.2c-4.6,0-10.1,1.9-12.3,6.2
		c-0.5,0.9-0.5,2.1-0.6,3.1c0,0.2,0,73.5,0,73.5c0.1,0.5,0.2,1,0.6,1.4c2.2,2.8,7.7,4.1,12.3,4.1c4.6,0,10.1-1.3,12.3-4.1
		c0.5-0.6,0.5-1.4,0.6-2C217.6,120.1,217.6,46.4,217.6,46.4"/>
	<path class="st1" d="M311.6,94.1c0-21.9,10.1-32.8,37-32.8c26.9,0,36.7,10.9,36.7,32.8c0,22.1-9.8,32.1-36.9,32.1
		C321.5,126.2,311.6,116.1,311.6,94.1 M358.9,89.3c0-1.9-0.1-3.8-0.6-5.5c-0.9-3.7-3.4-7.2-9.6-7.2c-6.3,0-8.9,3.6-9.8,7.2
		c-0.5,1.7-0.6,3.7-0.6,5.5c-0.1,1.7,0,3.4,0,4.8c0,1.4-0.1,3.1,0,4.8c0,1.8,0.1,3.8,0.6,5.5c0.9,3.7,3.5,7.2,9.8,7.2
		c6.2,0,8.7-3.6,9.6-7.2c0.5-1.7,0.6-3.7,0.6-5.5c0.1-1.7,0-3.5,0-4.8C358.9,92.8,359,91,358.9,89.3"/>
	<path class="st1" d="M142.6,61.2L142.6,61.2c-17.9-0.2-24.3,5.2-26.1,6.4c0,0-6.8,5.1-5.9,8.9c0.9,3.9,5.8,2.3,9.2,1.6
		c6.3-1.3,13.3-2.1,19.5-2.1c4.6,0,15,1.5,15,8.3v3.1c-22-3.3-46.1,0.8-46.1,17.5c0,14.8,12.9,21.5,33.9,21.5c0.9,0,6.7-0.2,9-0.4
		c20.6-2,28.3-12.1,28.3-31.7C179.4,72.2,169.6,61.2,142.6,61.2 M149.7,111.5c-1.2,0.4-2.7,0.4-4,0.5h-3.1c-1.3-0.1-2.7-0.2-3.9-0.5
		c-2.6-0.7-5.2-2.4-5.2-6.9c0-4.5,2.6-6.4,5.2-7.1c1.2-0.4,2.6-0.4,3.9-0.5h3.1c1.4,0.1,2.8,0.2,4,0.5c2.6,0.7,5.2,2.5,5.2,7.1
		C154.9,109.1,152.3,110.9,149.7,111.5"/>
	<path class="st2" d="M48.5,170.1c3,0.9,6.4,0.4,8.3-2.4c1.4-2,1.4-5.3-0.1-7.4c-0.5-0.8-1.7-1.5-2.6-1.8c-1.3-0.5-1.3-0.5-2.3-0.8
		c-1.9-0.6-3.8-1.3-5.7-2.1c-4.7-2.1-9.1-4.8-13-8.2c-1.2-1.1-2.3-2.2-3.4-3.3c-0.3-0.2-1.4-1.5-1.4-1.8
		C29.3,151.2,41.1,168,48.5,170.1"/>
	<path class="st1" d="M62.2,61.6c-29.8,0.1-35.6,12.9-35.6,30.2v16c0,2.1,0.4,11.6,0.6,12.9c1,6.3,4.3,12.5,8.8,17.3
		c5.3,5.5,10.5,8.1,16.3,9.8v-25.9c7.8,3.8,12.2,4.7,17.5,4.7c21.5,0,28.3-14.7,28.3-31.1C98.1,77.2,86.9,61.6,62.2,61.6 M72.9,99.2
		c0,1.9-0.1,3.8-0.6,5.5c-0.9,3.7-3.4,7.2-9.6,7.2c-6.3,0-8.9-3.6-9.8-7.2c-0.5-1.7-0.6-3.7-0.6-5.5c-0.1-1.7,0-3.4,0-4.8
		c0-1.4-0.1-3.1,0-4.8c0-1.8,0.1-3.8,0.6-5.5c0.9-3.7,3.5-7.2,9.8-7.2c6.2,0,8.7,3.6,9.6,7.2c0.5,1.7,0.6,3.7,0.6,5.5
		c0.1,1.7,0,3.5,0,4.8C72.9,95.7,73,97.4,72.9,99.2"/>
	<path class="st0" d="M279.1,18.1c-3-0.9-6.4-0.4-8.3,2.4c-1.4,2-1.4,5.3,0.1,7.4c0.6,0.8,1.7,1.5,2.6,1.8c1.2,0.5,1.3,0.5,2.3,0.8
		c2,0.6,3.8,1.3,5.7,2.1c4.7,2.1,9.1,4.8,13,8.2c1.2,1,2.3,2.2,3.4,3.3c0.3,0.2,1.4,1.5,1.4,1.8C298.3,37,286.5,20.2,279.1,18.1"/>
	<path class="st1" d="M265.4,126.6c29.8-0.1,35.6-13,35.6-30.2v-16c0-2.2-0.4-11.6-0.6-12.9c-1-6.4-4.3-12.5-8.8-17.3
		c-5.3-5.5-10.5-8.1-16.3-9.8v25.9c-7.8-3.8-12.2-4.7-17.5-4.7c-21.5,0-28.3,14.7-28.3,31.1C229.5,111.1,240.7,126.7,265.4,126.6
		 M254.7,89.1c0-1.9,0.1-3.8,0.6-5.5c0.9-3.7,3.4-7.2,9.6-7.2c6.3,0,8.9,3.6,9.8,7.2c0.5,1.7,0.6,3.7,0.6,5.5c0.1,1.7,0,3.3,0,4.8
		c0,1.4,0.1,3.1,0,4.8c0,1.8-0.1,3.8-0.6,5.5c-0.9,3.7-3.5,7.2-9.8,7.2c-6.2,0-8.7-3.6-9.6-7.2c-0.5-1.7-0.6-3.7-0.6-5.5
		c-0.1-1.7,0-3.5,0-4.8C254.7,92.5,254.6,90.8,254.7,89.1"/>
	<path d="M123.3,169.6l-1.8,2.2c-0.9-0.4-1.8-1.1-2.6-2c-0.8-0.9-1.4-1.9-1.7-2.8c-0.3,0.9-0.9,1.9-1.7,2.9c-0.9,1-1.9,1.8-2.9,2.4
		l-1.9-2.2c1.7-1.1,2.9-2.4,3.5-3.9c0.6-1.4,0.9-3.3,0.9-5.7V159h3.9v1.4c0,2.3,0.3,4.2,1,5.6C120.7,167.4,121.8,168.6,123.3,169.6
		 M133.4,175.2l-0.5,7.6h-3.7v-6c0-0.3,0-0.5-0.1-0.6c-0.1-0.1-0.2-0.2-0.5-0.2h-12.4v-2.7h15.6
		C132.9,173.3,133.4,173.9,133.4,175.2 M133.3,172.2h-3.7v-5.7h-2.2v5.6h-3.5v-13.5h3.5v5.1h2.2v-5.1h3.7V172.2z"/>
	<path d="M161,168.8h-4v14h-4.1v-8.6c-0.6,0.6-1.7,1.1-3.4,1.5c-1.4,0.3-3.5,0.5-6.3,0.5c-1.1,0-2.1,0-2.9-0.1
		c-1.6-0.2-2.4-1.2-2.4-3.1v-13.9h11.5v2.7H142v10.6c0,0.5,0.2,0.8,0.7,0.9c0.7,0.1,1.6,0.1,2.8,0.1c1.9,0,3.4-0.1,4.4-0.3
		c1-0.2,1.7-0.4,2.2-0.8c0.6-0.4,0.9-1,0.9-1.9v-11.7h4.1v7.4h4V168.8z"/>
	<path d="M185.9,174.2h-23.6v-2.7h23.6V174.2z M183.2,169.8h-15.5c-0.8,0-1.4-0.2-1.8-0.5c-0.4-0.3-0.5-0.9-0.5-1.7V163h13.2v-1.1
		c0-0.3-0.2-0.5-0.5-0.5h-12.8v-2.7h16c1,0,1.5,0.5,1.4,1.4l-0.3,5.3h-12.9v1.2c0,0.3,0.2,0.5,0.5,0.5h13.1V169.8z M183.2,182.8
		h-15.9c-0.7,0-1.2-0.1-1.5-0.4c-0.3-0.3-0.4-0.7-0.4-1.4v-5.2h4.1v3.6c0,0.4,0.2,0.6,0.8,0.6h12.9V182.8z"/>
	<path d="M218.6,171.1h-23.5v-2.6h23.5V171.1z M216.7,165.1l-0.7,2.6c-1.8-0.1-3.5-0.5-5.2-1.2c-1.8-0.7-3-1.6-3.8-2.5
		c-0.7,1-1.8,1.8-3.6,2.5c-1.6,0.7-3.5,1.1-5.6,1.2l-0.7-2.6c4.2-0.5,6.7-1.8,7.4-3.7h-6.5v-2.6h17.9v2.6h-6.4
		C210.1,163.4,212.6,164.6,216.7,165.1 M215.9,183.1h-15.3c-1.6,0-2.4-0.7-2.4-2.1v-4.4h13.1v-1c0-0.3-0.2-0.5-0.5-0.5h-12.7v-2.5
		h15.9c1,0,1.5,0.5,1.4,1.4l-0.3,5h-12.8v1c0,0.3,0.2,0.5,0.5,0.5h13V183.1z"/>
	<path d="M242.6,182.8h-4.2v-14.1h-5.9c-1.7,3.3-4.7,6.2-9,8.7l-2-2.3c5.5-3.5,8.3-7.6,8.3-12.5c0-0.5-0.2-0.7-0.7-0.7h-7v-2.7h10.2
		c1.3,0,2,0.7,2,2.1c0,1.7-0.2,3.2-0.7,4.7h4.9v-7.3h4.2V182.8z"/>
	<path d="M269.3,172.2h-9.7v2h5.3c1,0,1.4,0.5,1.4,1.5l-0.3,7.4h-14.8c-0.8,0-1.3-0.2-1.7-0.5c-0.3-0.3-0.5-0.9-0.5-1.7v-6.7h6.5v-2
		h-9.7v-2.6h23.6V172.2z M264.7,163.1c0,1.7-0.6,3-1.8,3.9c-1.2,1-3,1.5-5.3,1.5c-2.3,0-4-0.5-5.3-1.5c-1.2-0.9-1.8-2.3-1.8-3.9
		c0-1.7,0.6-3,1.8-3.9c1.3-1,3-1.5,5.3-1.5c2.3,0,4.1,0.5,5.3,1.5C264.1,160.2,264.7,161.5,264.7,163.1 M262,180.5v-3.2
		c0-0.3-0.2-0.5-0.5-0.5h-8.4v3c0,0.5,0.3,0.7,0.7,0.7H262z M260.6,163.1c0-0.8-0.3-1.5-0.8-2c-0.6-0.5-1.3-0.8-2.3-0.8
		c-0.9,0-1.7,0.3-2.3,0.8c-0.6,0.5-0.8,1.2-0.8,2c0,0.8,0.3,1.5,0.8,2c0.6,0.5,1.3,0.8,2.3,0.8c0.9,0,1.7-0.3,2.3-0.8
		C260.4,164.6,260.6,163.9,260.6,163.1"/>
	<path d="M295.2,170.1V170v-2.7v-0.1h-0.1l-3.9,0c1.2-1.3,1.4-2.6,1.4-4.5v-2.8h2.4h0.1v-0.1V157v-0.1H295h-17h-0.1v0.1v2.8v0.1h0.1
		h2.4v7.2h-2.6h-0.1v0.1v2.7v0.1h0.1h17.3H295.2z M287.6,167.1h-3.3v-7.2h4.5v2.7C288.8,164.5,288.9,165.7,287.6,167.1"/>
	<path d="M301.8,161v-2.8c0-1.6-0.5-2.2-2-2.2h-2h-0.1v0.1v13.9v0.1h0.1h3.8h0.1v-0.1v-5.7h3.9h0.1v-0.1v-3.1V161h-0.1H301.8z"/>
	<path d="M285.1,184.9c3.6,2.4,11,1.7,16.8-0.2l0.1,0l0-0.1l0-2.5V182l-0.2,0c-12.5,2.5-14,0.6-14,0.6c-0.4-0.3-0.6-0.8-0.6-1.3
		v-0.9h14.6v-8.1h-18.8v3.1h14.7v2h-14.6v3.1C283.2,180.4,282.9,183.5,285.1,184.9"/>
	<path d="M334.8,176.3c-1.2,0.5-5.3,1.3-10.2-0.1v-5.5c2.8-0.4,5.1-0.9,8.2-2.1l0.1,0v-3l-0.2,0.1c-4.4,1.4-12.8,3.2-15.7,1.1
		c-0.8-0.5-1.2-1.3-1.2-2.3v-4h17.1v-3.1h-21.1v7.6c0,3.8,3.1,5.9,8.8,6v4.6c-5.5-1.1-9.5,0-10.7,0.4v3.2c1.3-0.4,6.3-1.9,12.4-0.4
		c10.4,2.4,12.7,0.8,12.7,0.7l0.1,0v-3.3L334.8,176.3z"/>
</g>
</svg>
